<svg xmlns="http://www.w3.org/2000/svg" viewBox="0 0 50 40" fill="#fff">
<path d="M19.5094 32.6431C19.6099 32.685 19.6601 32.7969 19.6133 32.8956L18.8074 34.7707C18.8074 34.7707 17.4027 34.4589 14.9877 38.3657C14.8963 38.5139 14.2216 38.0644 14.5974 37.4217L16.1337 34.8299C16.2197 34.6755 16.1051 34.486 15.929 34.4917L17.6102 31.7007C17.8253 31.3439 18.9361 29.4146 19.5907 28.7281L20.9737 27.3306C21.0463 27.2461 21.1615 27.3709 21.1134 27.4715L19.5311 30.7933C18.8498 32.0774 19.2595 32.5391 19.5094 32.6431ZM46.3985 32.0777L45.0202 31.0722L45.5467 29.4455L44.1684 30.451L42.7901 29.4455L43.3167 31.0725L41.938 32.078H43.6416L44.1681 33.7044L44.6946 32.078H46.3985V32.0777ZM41.938 18.1175L43.3167 19.123L42.7898 20.7497L44.1684 19.7442L45.5467 20.7497L45.0202 19.123L46.3985 18.1175H44.695L44.1684 16.4908L43.6419 18.1175H41.938ZM41.5823 14.0597L43.203 14.5883L42.2015 13.2046L43.203 11.8206L41.5826 12.3492L40.5814 10.9652V12.6757L38.961 13.2043L40.5814 13.7329V15.4431L41.5823 14.0597ZM37.3733 9.45574H39.0769L37.6986 8.45029L38.2251 6.82358L36.8468 7.82904L35.4685 6.82358L35.995 8.45029L34.6167 9.45574H36.3203L36.8468 11.0824L37.3733 9.45574ZM44.2592 25.0974L43.2576 26.4814L44.878 25.9529L45.8792 27.3366V25.6263L47.4996 25.0977L45.8792 24.5692V22.8586L44.878 24.2426L43.2576 23.7141L44.2592 25.0974ZM33.5731 5.85405L31.9527 5.32547V3.61493L30.9512 4.99894L29.3311 4.47036L30.3327 5.85437L29.3311 7.23806L30.9515 6.70948L31.953 8.09348V6.38294L33.5731 5.85405ZM27.2301 4.13626H25.5262L24.9997 2.50956L24.4732 4.13626H22.7693L24.1479 5.14172L23.6214 6.76842L24.9997 5.76296L26.378 6.76842L25.8515 5.14172L27.2301 4.13626ZM20.6689 7.23774L19.6673 5.85405L20.6689 4.47005L19.0485 4.99862L18.047 3.61462V5.32516L16.4266 5.85374L18.047 6.38231V8.09285L19.0485 6.70885L20.6689 7.23774ZM15.3833 9.45574L14.0047 8.45029L14.5312 6.82358L13.1526 7.82904L11.7743 6.82358L12.3008 8.45029L10.9228 9.45574H12.6264L13.1529 11.0824L13.6794 9.45574H15.3833ZM9.41892 13.7329L11.0393 13.2043L9.41892 12.6761V10.9655L8.41737 12.3495L6.797 11.8209L7.79855 13.2049L6.797 14.5886L8.41737 14.0601L9.41892 15.4438V13.7329ZM8.06165 18.1175H6.35777L5.83125 16.4908L5.30473 18.1175H3.60117L4.97978 19.123L4.45326 20.7497L5.83188 19.7442L7.21018 20.7497L6.68366 19.123L8.06165 18.1175ZM8.06165 32.0777L6.68303 31.0722L7.20955 29.4452L5.83125 30.4506L4.45264 29.4452L4.97915 31.0719L3.60054 32.0774H5.30442L5.83094 33.7037L6.35745 32.0774L8.06165 32.0777ZM5.74083 25.0974L6.74237 23.7137L5.12201 24.2423L4.12046 22.8583V24.5689L2.50009 25.0974L4.12046 25.626V27.3362L5.12201 25.9526L6.74237 26.4811L5.74083 25.0974ZM25 0C38.8072 0 50 11.2366 50 25.0977C50 30.6706 48.1878 35.8165 45.1267 39.9808C44.2428 39.5732 43.6093 39.0122 43.1195 38.3462C39.5616 33.9171 37.0245 31.0675 36.4452 30.4361C35.2032 29.083 34.6246 28.9986 33.6764 28.5245C33.4836 28.4281 33.4048 28.348 33.2971 28.1605L28.4615 19.6323C28.1098 18.9304 27.5905 18.3268 26.95 17.8755L25.7425 17.0247C25.4939 16.8495 25.162 16.852 24.9159 17.0317L23.9206 17.7579C23.8386 17.8175 23.7671 17.89 23.708 17.9722L21.4274 21.1591L20.3175 22.0312L12.6637 31.7776L11.963 32.0802C11.8167 32.1435 11.6889 32.2425 11.5906 32.3686L6.93546 38.3452C6.51915 38.8656 5.93643 39.5452 4.88779 40C1.81816 35.8319 0 30.6788 0 25.0974C0 11.2366 11.1931 0 25 0ZM34.0553 39.6025C34.1753 39.4273 34.3696 38.9466 34.0045 38.0556L32.8981 35.0688C32.7471 34.6875 33.0758 34.4561 33.2965 34.7073C33.2965 34.7073 35.3875 37.1277 35.9285 38.1382L36.9589 39.8563C37.8455 39.9136 40.2944 39.9808 42.651 39.9808C42.4168 39.7478 42.1983 39.4951 41.9942 39.2202C37.9736 34.2159 35.4242 31.4312 35.3988 31.4038C34.5828 30.5149 34.207 30.3435 33.5847 30.0592C33.4949 30.0182 33.3985 29.9738 33.2965 29.9258V30.6858C33.2965 30.7854 33.1791 30.8386 33.1194 30.7331L27.2069 20.3072L27.1905 20.2744C26.9453 19.7846 26.5792 19.3594 26.1325 19.0445L25.556 18.6382L22.736 25.1699C23.1752 25.1699 23.4707 25.6216 23.2961 26.0263L20.6905 32.0777H23.082C24.0063 32.0777 24.9218 32.2586 25.7774 32.6103L26.4078 32.8694C26.4078 32.8694 24.5058 36.7986 24.5058 38.8675C24.5058 39.2448 24.5652 39.6249 24.6612 39.9805H29.0457L28.8429 38.7402C28.8426 38.7405 31.4808 39.3517 34.0553 39.6025Z" fill="white"></path>
</svg>